{"title":"Teenage Mutant Ninja Turtles 2014 BRRip x264 AAC-MiLLENiUM","uid":11571325,"size":1781052572,"categoryP":"video","categoryS":"movies","magnet":"?xt=urn:btih:c3c9ad62ab4b9895cef9e634404dca11d23838ae&amp;dn=Teenage+Mutant+Ninja+Turtles+2014+BRRip+x264+AAC-MiLLENiUM&amp;tr=udp%3A%2F%2Ftracker.openbittorrent.com%3A80&amp;tr=udp%3A%2F%2Fopen.demonii.com%3A1337&amp;tr=udp%3A%2F%2Ftracker.coppersurfer.tk%3A6969&amp;tr=udp%3A%2F%2Fexodus.desync.com%3A6969","seeders":2,"leechers":0,"uploader":"TvTeam","files":4,"time":1417029395,"description":" &lt;a href=&quot;https://www.torrenting.com&quot; rel=&quot;nofollow&quot; target=&quot;_NEW&quot;&gt;https://www.torrenting.com&lt;/a&gt;\n\nSign up is OPEN - for time being. Come and have fun.\n\n------------------------------------------------------------------[img]http://postimg.org/image/xnojxm9rl/[/img]\n \n[color=red][b]Teenage Mutant Ninja Turtles 2014 BRRip x264 AAC-MiLLENiUM[/b][/color]\n\n[color=red]General[/color]\n\nSource...............: BluRay 720p AC3 x264-CHD [THANKS]\nIMDb Information.... : http://www.imdb.com/title/tt0831387/\nSample Included......: yes\n\nGeneral\nComplete name                            : Teenage Mutant Ninja Turtles 2014 BRRip x264 AAC-MiLLENiUM.mp4\nFormat                                   : MPEG-4\nFormat profile                           : Base Media\nCodec ID                                 : isom\nFile size                                : 1.63 GiB\nDuration                                 : 1h 41mn\nOverall bit rate mode                    : Variable\nOverall bit rate                         : 2 306 Kbps\nEncoded date                             : UTC 2014-11-25 15:32:31\nTagged date                              : UTC 2014-11-25 15:32:31\n\nVideo\nID                                       : 1\nFormat                                   : AVC\nFormat/Info                              : Advanced Video Codec\nFormat profile                           : &lt;a class=&quot;__cf_email__&quot; href=&quot;/cdn-cgi/l/email-protection&quot; data-cfemail=&quot;e5ad8c828da5a9d1cbd4&quot;&gt;[email&amp;#160;protected]&lt;/a&gt;&lt;script cf-hash='f9e31' type=&quot;text/javascript&quot;&gt;\n/* &lt;![CDATA[ */!function(){try{var t=&quot;currentScript&quot;in document?document.currentScript:function(){for(var t=document.getElementsByTagName(&quot;script&quot;),e=t.length;e--;)if(t[e].getAttribute(&quot;cf-hash&quot;))return t[e]}();if(t&amp;&amp;t.previousSibling){var e,r,n,i,c=t.previousSibling,a=c.getAttribute(&quot;data-cfemail&quot;);if(a){for(e=&quot;&quot;,r=parseInt(a.substr(0,2),16),n=2;a.length-n;n+=2)i=parseInt(a.substr(n,2),16)^r,e+=String.fromCharCode(i);e=document.createTextNode(e),c.parentNode.replaceChild(e,c)}}}catch(u){}}();/* ]]&gt; */&lt;/script&gt;\nFormat settings, CABAC                   : Yes\nFormat settings, ReFrames                : 3 frames\nCodec ID                                 : avc1\nCodec ID/Info                            : Advanced Video Coding\nDuration                                 : 1h 41mn\nBit rate mode                            : Variable\nBit rate                                 : 1 950 Kbps\nMaximum bit rate                         : 40.0 Mbps\nWidth                                    : 720 pixels\nHeight                                   : 304 pixels\nDisplay aspect ratio                     : 2.35:1\nFrame rate mode                          : Constant\nFrame rate                               : 23.976 fps\nColor space                              : YUV\nChroma subsampling                       : 4:2:0\nBit depth                                : 8 bits\nScan type                                : Progressive\nBits/(Pixel*Frame)                       : 0.372\nStream size                              : 1.38 GiB (85%)\nWriting library                          : x264 core 142 r2479 dd79a61\nColor range                              : Full\n\nAudio\nID                                       : 2\nFormat                                   : AAC\nFormat/Info                              : Advanced Audio Codec\nFormat profile                           : LC\nCodec ID                                 : 40\nDuration                                 : 1h 41mn\nBit rate mode                            : Variable\nBit rate                                 : 353 Kbps\nMaximum bit rate                         : 418 Kbps\nChannel(s)                               : 6 channels\nChannel positions                        : Front: L C R, Side: L R, LFE\nSampling rate                            : 48.0 KHz\nCompression mode                         : Lossy\nStream size                              : 255 MiB (15%)\nLanguage                                 : English\nEncoded date                             : UTC 2014-11-25 14:22:18\nTagged date                              : UTC 2014-11-25 15:32:53\n\n[color=red]Plot[/color]\n\nWhen a kingpin threatens New York City, a group of mutated turtle warriors must emerge from the shadows to protect their home. \n \n[color=red]Screenshots[/color]\n\n[img]http://s8.postimg.org/pjb5fz9bp/vlcsnap_2014_11_25_15h36m32s59.jpg[/img]\n[img]http://s8.postimg.org/hp5yguc51/vlcsnap_2014_11_25_15h44m39s62.jpg[/img]\n[img]http://s8.postimg.org/wp2wifiet/vlcsnap_2014_11_25_15h44m59s18.jpg[/img]\n[img]http://s8.postimg.org/deral971x/vlcsnap_2014_11_25_15h45m35s120.jpg[/img]\n[img]http://s8.postimg.org/57zatogz9/vlcsnap_2014_11_25_15h46m53s104.jpg[/img]\n[img]http://s8.postimg.org/qmv9rxtyt/vlcsnap_2014_11_25_15h49m12s242.jpg[/img]","torrent":{"xt":"urn:btih:c3c9ad62ab4b9895cef9e634404dca11d23838ae","amp;dn":"Teenage+Mutant+Ninja+Turtles+2014+BRRip+x264+AAC-MiLLENiUM","amp;tr":["udp%3A%2F%2Ftracker.openbittorrent.com%3A80","udp%3A%2F%2Fopen.demonii.com%3A1337","udp%3A%2F%2Ftracker.coppersurfer.tk%3A6969","udp%3A%2F%2Fexodus.desync.com%3A6969"],"infoHash":"c3c9ad62ab4b9895cef9e634404dca11d23838ae","infoHashBuffer":{"type":"Buffer","data":[195,201,173,98,171,75,152,149,206,249,230,52,64,77,202,17,210,56,56,174]},"announce":[],"urlList":[]}}